HIERARCHY
ROOT Hips
{
	OFFSET 0.000000 71.427986 0.000000
	CHANNELS 6 Xposition Yposition Zposition Xrotation Yrotation Zrotation
	JOINT Pelvis
	{
		OFFSET 0.000000 0.000000 0.000000
		CHANNELS 3 Xrotation Yrotation Zrotation
		JOINT LeftUpLeg
		{
			OFFSET 6.797100 -2.508499 -1.318700
			CHANNELS 3 Xrotation Yrotation Zrotation
			JOINT LeftLeg
			{
				OFFSET 0.069008 -29.241863 0.690200
				CHANNELS 3 Xrotation Yrotation Zrotation
				JOINT LeftFoot
				{
					OFFSET -0.069008 -29.568123 -0.266800
					CHANNELS 3 Xrotation Yrotation Zrotation
					JOINT LeftToeBase
					{
						OFFSET 3.145500 -8.631000 16.059900
						CHANNELS 3 Xrotation Yrotation Zrotation
						End Site
						{
							OFFSET 0.000000 18.501587 0.000000
						}
					}
				}
			}
			JOINT Left_ShortSleeve
			{
				OFFSET 0.265923 -10.480953 1.153800
				CHANNELS 3 Xrotation Yrotation Zrotation
				End Site
				{
					OFFSET 1.725763 19.823879 0.000000
				}
			}
		}
		JOINT RightUpLeg
		{
			OFFSET -6.797100 -2.508499 -1.318700
			CHANNELS 3 Xrotation Yrotation Zrotation
			JOINT RightLeg
			{
				OFFSET -0.082453 -29.241932 0.688000
				CHANNELS 3 Xrotation Yrotation Zrotation
				JOINT RightFoot
				{
					OFFSET 0.082453 -29.568058 -0.264600
					CHANNELS 3 Xrotation Yrotation Zrotation
					JOINT RightToeBase
					{
						OFFSET -3.115300 -8.682800 16.113400
						CHANNELS 3 Xrotation Yrotation Zrotation
						End Site
						{
							OFFSET 0.000000 18.567114 0.000000
						}
					}
				}
			}
			JOINT Right_ShortSleeve
			{
				OFFSET -0.265923 -10.480953 1.153800
				CHANNELS 3 Xrotation Yrotation Zrotation
				End Site
				{
					OFFSET -1.725766 19.823910 0.000000
				}
			}
		}
	}
	JOINT Spine
	{
		OFFSET 0.000000 13.368103 0.470500
		CHANNELS 3 Xrotation Yrotation Zrotation
		JOINT Spine1
		{
			OFFSET 0.147000 13.837402 0.538800
			CHANNELS 3 Xrotation Yrotation Zrotation
			JOINT Spine2
			{
				OFFSET 0.168000 16.242897 -1.435500
				CHANNELS 3 Xrotation Yrotation Zrotation
				JOINT Neck
				{
					OFFSET 0.217200 18.631500 -1.679100
					CHANNELS 3 Xrotation Yrotation Zrotation
					JOINT Head
					{
						OFFSET 0.000000 6.599396 1.385900
						CHANNELS 3 Xrotation Yrotation Zrotation
						JOINT Hat
						{
							OFFSET -0.532200 27.220596 -10.096100
							CHANNELS 3 Xrotation Yrotation Zrotation
							End Site
							{
								OFFSET 0.000000 22.029861 0.000000
							}
						}
						JOINT HairD
						{
							OFFSET -10.777400 17.437393 -1.325900
							CHANNELS 3 Xrotation Yrotation Zrotation
							JOINT HairD1
							{
								OFFSET -3.290299 -11.051193 1.062200
								CHANNELS 3 Xrotation Yrotation Zrotation
								End Site
								{
									OFFSET 0.000000 11.579437 0.000000
								}
							}
						}
						JOINT HairB
						{
							OFFSET -10.777400 17.437393 1.467900
							CHANNELS 3 Xrotation Yrotation Zrotation
							JOINT HairB1
							{
								OFFSET -1.561200 -12.956299 3.590200
								CHANNELS 3 Xrotation Yrotation Zrotation
								End Site
								{
									OFFSET 0.000000 13.534866 0.000000
								}
							}
						}
						JOINT HairA
						{
							OFFSET 9.713100 17.437393 1.467900
							CHANNELS 3 Xrotation Yrotation Zrotation
							JOINT HairA1
							{
								OFFSET 1.561200 -12.956299 3.590200
								CHANNELS 3 Xrotation Yrotation Zrotation
								End Site
								{
									OFFSET 0.000000 13.534866 0.000000
								}
							}
						}
						JOINT HairC
						{
							OFFSET 9.713100 17.437393 -1.325900
							CHANNELS 3 Xrotation Yrotation Zrotation
							JOINT HairC1
							{
								OFFSET 3.290300 -11.051193 1.062200
								CHANNELS 3 Xrotation Yrotation Zrotation
								End Site
								{
									OFFSET 0.000000 11.579437 0.000000
								}
							}
						}
					}
				}
				JOINT LeftShoulder
				{
					OFFSET 5.101800 15.108002 -2.763700
					CHANNELS 3 Xrotation Yrotation Zrotation
					JOINT LeftArm
					{
						OFFSET 9.825497 2.506317 -1.597400
						CHANNELS 3 Xrotation Yrotation Zrotation
						JOINT LeftForeArm
						{
							OFFSET 21.966244 0.000000 0.000000
							CHANNELS 3 Xrotation Yrotation Zrotation
							JOINT LeftHand
							{
								OFFSET 33.879036 0.000000 0.000000
								CHANNELS 3 Xrotation Yrotation Zrotation
								JOINT LeftHandThumb1
								{
									OFFSET 6.715286 -2.359680 3.363841
									CHANNELS 3 Xrotation Yrotation Zrotation
									JOINT LeftHandThumb2
									{
										OFFSET 2.507072 -1.447464 1.447461
										CHANNELS 3 Xrotation Yrotation Zrotation
										JOINT LeftHandThumb3
										{
											OFFSET 2.898338 -1.673355 1.673357
											CHANNELS 3 Xrotation Yrotation Zrotation
											End Site
											{
												OFFSET -0.295959 3.727692 -0.131651
											}
										}
									}
								}
								JOINT LeftHandIndex1
								{
									OFFSET 14.190811 -0.254547 3.840278
									CHANNELS 3 Xrotation Yrotation Zrotation
									JOINT LeftHandIndex2
									{
										OFFSET 3.551727 0.000000 -0.000000
										CHANNELS 3 Xrotation Yrotation Zrotation
										JOINT LeftHandIndex3
										{
											OFFSET 2.894196 0.000000 0.000000
											CHANNELS 3 Xrotation Yrotation Zrotation
											End Site
											{
												OFFSET -1.000603 2.690872 0.366626
											}
										}
									}
								}
								JOINT LeftHandMiddle1
								{
									OFFSET 13.776489 0.000000 0.000000
									CHANNELS 3 Xrotation Yrotation Zrotation
									JOINT LeftHandMiddle2
									{
										OFFSET 3.438232 0.000000 0.000000
										CHANNELS 3 Xrotation Yrotation Zrotation
										JOINT LeftHandMiddle3
										{
											OFFSET 3.691551 0.000000 0.000000
											CHANNELS 3 Xrotation Yrotation Zrotation
											End Site
											{
												OFFSET -1.082298 3.499527 0.457670
											}
										}
									}
								}
								JOINT LeftHandRing1
								{
									OFFSET 13.966164 -0.268127 -3.067488
									CHANNELS 3 Xrotation Yrotation Zrotation
									JOINT LeftHandRing2
									{
										OFFSET 3.162567 0.000000 0.000000
										CHANNELS 3 Xrotation Yrotation Zrotation
										JOINT LeftHandRing3
										{
											OFFSET 3.324348 0.000000 0.000000
											CHANNELS 3 Xrotation Yrotation Zrotation
											End Site
											{
												OFFSET -0.861900 3.184998 0.405154
											}
										}
									}
								}
								JOINT LeftHandPinky1
								{
									OFFSET 13.131393 -0.168503 -5.746925
									CHANNELS 3 Xrotation Yrotation Zrotation
									JOINT LeftHandPinky2
									{
										OFFSET 2.849182 0.000000 0.000000
										CHANNELS 3 Xrotation Yrotation Zrotation
										JOINT LeftHandPinky3
										{
											OFFSET 2.805038 0.000000 0.000000
											CHANNELS 3 Xrotation Yrotation Zrotation
											End Site
											{
												OFFSET -0.882500 2.642609 0.325652
											}
										}
									}
								}
							}
							JOINT Left_Sleeve
							{
								OFFSET 6.592125 -0.646545 0.805568
								CHANNELS 3 Xrotation Yrotation Zrotation
								End Site
								{
									OFFSET -0.000179 20.275787 -0.000000
								}
							}
						}
					}
				}
				JOINT RightShoulder
				{
					OFFSET -5.731700 15.108002 -2.763700
					CHANNELS 3 Xrotation Yrotation Zrotation
					JOINT RightArm
					{
						OFFSET -9.825497 2.506317 -1.597400
						CHANNELS 3 Xrotation Yrotation Zrotation
						JOINT RightForeArm
						{
							OFFSET -21.966242 0.000000 0.000000
							CHANNELS 3 Xrotation Yrotation Zrotation
							JOINT RightHand
							{
								OFFSET -33.879032 0.000000 0.000000
								CHANNELS 3 Xrotation Yrotation Zrotation
								JOINT RightHandThumb1
								{
									OFFSET -6.715286 -2.359680 3.363841
									CHANNELS 3 Xrotation Yrotation Zrotation
									JOINT RightHandThumb2
									{
										OFFSET -2.507072 -1.447464 1.447461
										CHANNELS 3 Xrotation Yrotation Zrotation
										JOINT RightHandThumb3
										{
											OFFSET -2.898338 -1.673355 1.673357
											CHANNELS 3 Xrotation Yrotation Zrotation
											End Site
											{
												OFFSET 0.295959 3.727692 -0.131651
											}
										}
									}
								}
								JOINT RightHandIndex1
								{
									OFFSET -14.190811 -0.254547 3.840278
									CHANNELS 3 Xrotation Yrotation Zrotation
									JOINT RightHandIndex2
									{
										OFFSET -3.551727 0.000000 -0.000000
										CHANNELS 3 Xrotation Yrotation Zrotation
										JOINT RightHandIndex3
										{
											OFFSET -2.894196 0.000000 0.000000
											CHANNELS 3 Xrotation Yrotation Zrotation
											End Site
											{
												OFFSET 1.000603 2.690872 0.366626
											}
										}
									}
								}
								JOINT RightHandMiddle1
								{
									OFFSET -13.776489 0.000000 0.000000
									CHANNELS 3 Xrotation Yrotation Zrotation
									JOINT RightHandMiddle2
									{
										OFFSET -3.438232 0.000000 0.000000
										CHANNELS 3 Xrotation Yrotation Zrotation
										JOINT RightHandMiddle3
										{
											OFFSET -3.691551 0.000000 0.000000
											CHANNELS 3 Xrotation Yrotation Zrotation
											End Site
											{
												OFFSET 1.082298 3.499527 0.457670
											}
										}
									}
								}
								JOINT RightHandRing1
								{
									OFFSET -13.966164 -0.268127 -3.067488
									CHANNELS 3 Xrotation Yrotation Zrotation
									JOINT RightHandRing2
									{
										OFFSET -3.162567 0.000000 0.000000
										CHANNELS 3 Xrotation Yrotation Zrotation
										JOINT RightHandRing3
										{
											OFFSET -3.324348 0.000000 0.000000
											CHANNELS 3 Xrotation Yrotation Zrotation
											End Site
											{
												OFFSET 0.861900 3.184998 0.405154
											}
										}
									}
								}
								JOINT RightHandPinky1
								{
									OFFSET -13.131393 -0.168503 -5.746925
									CHANNELS 3 Xrotation Yrotation Zrotation
									JOINT RightHandPinky2
									{
										OFFSET -2.849182 0.000000 0.000000
										CHANNELS 3 Xrotation Yrotation Zrotation
										JOINT RightHandPinky3
										{
											OFFSET -2.805038 0.000000 0.000000
											CHANNELS 3 Xrotation Yrotation Zrotation
											End Site
											{
												OFFSET 0.882500 2.642609 0.325652
											}
										}
									}
								}
							}
							JOINT Right_Sleeve
							{
								OFFSET -6.592125 -0.646545 0.805568
								CHANNELS 3 Xrotation Yrotation Zrotation
								End Site
								{
									OFFSET 0.000179 20.275787 -0.000000
								}
							}
						}
					}
				}
				JOINT Bind_Right_JacketString
				{
					OFFSET -3.534800 11.969597 7.200700
					CHANNELS 3 Xrotation Yrotation Zrotation
					JOINT Bind_Right_JacketString1
					{
						OFFSET -0.319900 -6.102600 2.794100
						CHANNELS 3 Xrotation Yrotation Zrotation
						End Site
						{
							OFFSET 0.000000 6.719452 0.000000
						}
					}
				}
				JOINT Bind_Left_JacketString
				{
					OFFSET 2.904800 11.969597 7.200700
					CHANNELS 3 Xrotation Yrotation Zrotation
					JOINT Bind_Left_JacketString1
					{
						OFFSET 0.364800 -5.904503 3.186800
						CHANNELS 3 Xrotation Yrotation Zrotation
						End Site
						{
							OFFSET 0.000000 6.719513 0.000000
						}
					}
				}
				JOINT HairE
				{
					OFFSET 5.915200 17.612701 -11.592200
					CHANNELS 3 Xrotation Yrotation Zrotation
					JOINT HairE1
					{
						OFFSET 0.289200 -7.171898 -1.284500
						CHANNELS 3 Xrotation Yrotation Zrotation
						End Site
						{
							OFFSET 0.000000 7.291756 0.000000
						}
					}
				}
				JOINT HairF
				{
					OFFSET -0.864800 17.612701 -11.592200
					CHANNELS 3 Xrotation Yrotation Zrotation
					JOINT HairF1
					{
						OFFSET 0.000000 -14.087097 -2.127501
						CHANNELS 3 Xrotation Yrotation Zrotation
						End Site
						{
							OFFSET 0.000000 14.246841 0.000000
						}
					}
				}
				JOINT HairG
				{
					OFFSET -8.087700 17.612701 -11.592200
					CHANNELS 3 Xrotation Yrotation Zrotation
					JOINT HairG1
					{
						OFFSET -0.293600 -6.081398 -0.910100
						CHANNELS 3 Xrotation Yrotation Zrotation
						End Site
						{
							OFFSET 0.000000 6.156120 0.000000
						}
					}
				}
			}
		}
	}
	JOINT Pouch
	{
		OFFSET 0.000000 4.394501 10.847300
		CHANNELS 3 Xrotation Yrotation Zrotation
		End Site
		{
			OFFSET 0.000000 21.880577 0.000000
		}
	}
	JOINT Bag
	{
		OFFSET -13.229000 4.813004 -0.593300
		CHANNELS 3 Xrotation Yrotation Zrotation
		End Site
		{
			OFFSET 0.000000 21.880577 0.000000
		}
	}
	JOINT OccupyGuyFacialAnim_Joint
	{
		OFFSET 1.000000 -70.206398 -1.655000
		CHANNELS 3 Xrotation Yrotation Zrotation
		End Site
		{
			OFFSET 0.000000 21.880577 0.000000
		}
	}
}
MOTION
Frames: 4
Frame Time: 0.033333
0.114269 97.214584 0.710234 -23.806223 7.315403 6.275380 -0.000002 0.000001 -0.000000 -25.863872 1.544391 -8.223012 48.810253 -9.538774 3.881439 -29.233148 -16.185399 -17.694013 0.000001 0.000000 0.000001 -0.000005 -0.000000 0.000000 -12.984321 -4.291426 -4.297243 27.273994 -5.920464 0.618646 -9.795004 -5.428451 30.746578 -0.000003 0.000000 -0.000002 -0.000003 -0.000000 -0.000000 2.772244 -1.591622 -8.403072 3.941129 -2.787499 -3.338737 3.906054 -2.686588 -3.494097 -0.406768 -0.220187 0.478961 -37.251691 4.476345 -6.339938 0.000002 0.000000 -0.000000 0.000002 0.000000 -0.000000 0.000002 0.000000 0.000000 0.000002 0.000000 -0.000001 0.000001 0.000001 -0.000000 0.000002 0.000000 -0.000001 0.000001 0.000001 -0.000000 0.000002 0.000000 -0.000000 0.000002 0.000000 -0.000000 0.818894 -6.446423 -0.902918 -63.450531 -19.747957 -99.446441 0.000354 -97.753032 0.000361 -5.613494 8.186393 -3.767218 -7.220021 -16.942351 15.004601 61.279781 49.725164 -46.760742 -0.000001 0.000003 0.000003 7.999513 13.730272 -40.465671 6.588031 5.804602 -97.248425 0.000001 0.000004 -0.000003 11.849116 7.460540 -97.748702 7.329691 5.661770 -104.662390 0.000003 0.000001 0.000001 13.056573 8.173266 -90.355234 7.227154 5.687501 -103.625376 0.000001 0.000001 0.000002 7.921757 7.849208 -110.020407 5.495195 5.840283 -86.506989 -0.000003 0.000001 -0.000000 -0.000000 0.000000 0.000000 3.219595 14.333396 -17.243099 -117.541709 20.272145 68.394939 0.000007 33.256253 -0.000005 -57.023234 -0.298323 -10.463143 19.450084 20.477669 1.050220 36.430665 -42.891095 22.465855 0.000000 -0.000001 0.000000 8.024083 -11.756114 46.776455 6.454475 -4.297065 112.723810 0.000001 0.000005 0.000001 2.511201 -6.384152 61.840273 5.190641 -4.626581 96.584674 0.000002 0.000002 0.000001 3.221619 -6.689495 71.121114 5.294235 -4.613485 97.870798 0.000000 0.000002 -0.000004 3.930871 -6.866708 80.380057 4.132444 -4.627597 83.523569 -0.000000 0.000000 -0.000001 0.000001 -0.000001 0.000001 0.000000 0.000000 -0.000000 0.000000 -0.000000 0.000000 0.000000 0.000000 -0.000001 0.000000 0.000000 -0.000001 0.000000 0.000000 -0.000000 0.000000 -0.000000 0.000001 0.000000 0.000000 -0.000001 0.000000 0.000000 -0.000001 0.000000 0.000000 -0.000000 0.000000 -0.000000 0.000001 -0.000002 0.000001 -0.000000 -0.000002 0.000001 -0.000000 -0.000002 0.000001 -0.000000 
0.071172 97.340874 1.254930 -24.175974 9.165094 6.439346 0.000002 0.000001 0.000000 -25.154533 2.205216 -7.883776 49.805569 -9.774332 3.854443 -30.063423 -15.954765 -17.382118 0.000001 -0.000002 -0.000001 -0.000002 0.000000 -0.000001 -12.481323 -4.097524 -3.998606 27.740977 -5.060157 0.367836 -10.222277 -5.085922 30.715986 0.000002 0.000001 -0.000000 0.000003 -0.000001 -0.000000 2.718183 -1.795514 -8.837145 3.875427 -3.310380 -3.511028 3.827616 -3.203014 -3.700289 0.335021 -0.266080 0.539866 -35.399750 3.860499 -5.900459 0.000002 -0.000001 0.000000 0.000002 -0.000001 0.000000 0.000002 -0.000001 0.000001 0.000002 -0.000001 0.000000 -0.000002 -0.000001 0.000000 0.000002 -0.000001 0.000000 -0.000002 -0.000001 0.000000 0.000002 -0.000001 0.000000 0.000002 -0.000001 0.000000 0.881337 -7.013412 -0.274990 -62.878913 -21.117031 -96.688062 -0.000129 -99.284108 -0.000122 -9.524907 9.031146 -3.860916 -7.220024 -16.942347 15.004599 61.279802 49.725188 -46.760763 -0.000003 0.000002 0.000005 7.999511 13.730267 -40.465657 6.588012 5.804595 -97.248431 0.000001 -0.000001 -0.000000 11.849115 7.460544 -97.748702 7.329687 5.661766 -104.662390 0.000004 -0.000001 -0.000001 13.056562 8.173271 -90.355227 7.227153 5.687505 -103.625383 -0.000003 0.000001 0.000000 7.921737 7.849207 -110.020393 5.495195 5.840273 -86.506989 -0.000000 -0.000000 -0.000001 0.000000 0.000000 -0.000000 3.065898 13.584967 -17.570206 -113.156120 10.080187 70.121065 -0.000007 44.978056 0.000003 -58.842667 1.052469 -15.232275 19.450070 20.477652 1.050219 36.430668 -42.891112 22.465836 0.000000 0.000002 0.000002 8.024070 -11.756115 46.776445 6.454472 -4.297059 112.723782 -0.000004 -0.000001 0.000004 2.511193 -6.384149 61.840260 5.190634 -4.626581 96.584681 0.000001 0.000002 -0.000002 3.221610 -6.689496 71.121093 5.294242 -4.613498 97.870846 0.000004 0.000000 -0.000003 3.930858 -6.866720 80.380043 4.132441 -4.627590 83.523590 0.000004 0.000004 -0.000001 0.000001 0.000000 0.000000 0.000000 -0.000000 0.000001 0.000000 0.000000 0.000000 0.000000 -0.000000 0.000000 0.000000 -0.000000 0.000000 0.000000 -0.000000 0.000001 0.000000 0.000000 0.000000 0.000000 -0.000000 0.000000 0.000000 -0.000000 0.000000 0.000000 -0.000000 0.000001 0.000000 0.000000 0.000000 0.000002 0.000001 0.000000 0.000002 0.000001 0.000000 0.000002 0.000001 0.000000 
0.100562 97.443939 1.706112 -24.458942 10.233728 6.574763 -0.000001 0.000001 -0.000000 -24.691672 2.672919 -7.669018 50.804470 -9.862381 3.837492 -31.311387 -15.711167 -17.182516 -0.000001 -0.000003 -0.000001 -0.000002 0.000000 -0.000000 -12.197011 -4.002357 -3.804321 28.186411 -4.291434 0.121562 -10.457001 -4.414527 30.682699 -0.000000 0.000001 0.000001 0.000001 0.000001 -0.000000 2.731009 -1.962413 -9.075419 3.907498 -3.728678 -3.486168 3.847899 -3.624959 -3.706436 0.464592 -0.139786 0.271606 -33.753333 4.119191 -5.907769 0.000001 0.000000 0.000001 0.000001 0.000000 0.000001 0.000001 0.000000 0.000000 0.000001 0.000000 0.000001 0.000000 -0.000000 0.000001 0.000001 0.000000 0.000001 0.000000 -0.000000 0.000001 0.000001 0.000000 0.000001 0.000001 0.000000 0.000001 0.946593 -7.599898 0.106598 -62.441152 -22.392435 -95.157533 0.000990 -100.934548 0.000963 -13.176016 9.880161 -3.577214 -7.220031 -16.942349 15.004590 61.279754 49.725177 -46.760725 0.000001 0.000002 0.000002 7.999510 13.730266 -40.465667 6.588021 5.804606 -97.248438 0.000002 0.000001 -0.000000 11.849116 7.460538 -97.748722 7.329683 5.661764 -104.662431 -0.000002 -0.000001 -0.000005 13.056584 8.173266 -90.355241 7.227155 5.687502 -103.625342 -0.000001 0.000001 0.000000 7.921756 7.849206 -110.020400 5.495198 5.840275 -86.506969 -0.000003 -0.000001 0.000001 0.000001 0.000000 -0.000000 3.016728 13.577425 -17.126909 -110.278062 2.083380 72.582153 0.000046 53.644733 -0.000034 -61.054276 2.163343 -14.833091 19.450065 20.477652 1.050225 36.430672 -42.891095 22.465827 -0.000001 0.000000 0.000001 8.024059 -11.756117 46.776438 6.454484 -4.297071 112.723816 0.000001 0.000004 -0.000001 2.511184 -6.384155 61.840246 5.190630 -4.626576 96.584687 0.000002 -0.000000 0.000001 3.221584 -6.689492 71.121086 5.294249 -4.613517 97.870832 0.000005 0.000000 -0.000003 3.930871 -6.866722 80.380043 4.132446 -4.627580 83.523576 0.000002 0.000002 -0.000003 -0.000001 0.000000 0.000002 0.000000 0.000000 0.000001 0.000000 0.000000 -0.000000 0.000000 0.000000 -0.000000 0.000000 0.000000 -0.000000 0.000000 0.000000 0.000001 0.000000 0.000000 -0.000000 0.000000 0.000000 -0.000000 0.000000 0.000000 -0.000000 0.000000 0.000000 0.000001 0.000000 0.000000 -0.000000 -0.000001 0.000001 -0.000000 -0.000001 0.000001 -0.000000 -0.000001 0.000001 -0.000000 
0.162775 97.610855 2.074648 -24.512080 10.640594 6.643275 0.000000 -0.000000 0.000000 -24.384721 3.071121 -7.403710 51.338099 -10.280742 3.668138 -31.694038 -15.549718 -16.919683 0.000001 0.000001 0.000001 0.000004 -0.000001 0.000000 -12.039982 -3.894689 -3.782403 28.600765 -4.458025 0.017117 -10.371980 -3.697352 30.679427 0.000002 0.000001 -0.000002 0.000003 0.000001 -0.000000 2.774800 -2.074601 -9.085861 3.989296 -4.043354 -3.343049 3.919863 -3.949362 -3.587803 0.001187 0.154015 0.038212 -32.127680 5.667706 -6.331874 -0.000000 0.000000 -0.000000 -0.000000 0.000000 -0.000000 -0.000000 0.000000 -0.000001 -0.000000 0.000000 0.000000 -0.000002 -0.000000 -0.000000 -0.000000 0.000000 0.000000 -0.000002 -0.000000 -0.000000 -0.000000 0.000000 -0.000000 -0.000000 0.000000 -0.000000 0.979267 -8.004925 -0.017414 -61.870046 -23.263566 -94.697779 0.000573 -102.803875 0.000571 -15.947949 10.212813 -3.150883 -7.220029 -16.942329 15.004583 61.279767 49.725171 -46.760718 -0.000002 0.000001 -0.000001 7.999514 13.730275 -40.465685 6.588019 5.804595 -97.248452 0.000003 0.000000 -0.000005 11.849116 7.460534 -97.748716 7.329684 5.661769 -104.662417 0.000001 0.000000 0.000001 13.056580 8.173273 -90.355234 7.227154 5.687503 -103.625362 -0.000001 0.000002 0.000001 7.921753 7.849209 -110.020387 5.495204 5.840274 -86.506989 -0.000001 -0.000000 -0.000001 -0.000000 -0.000000 0.000001 3.007278 13.667034 -16.824699 -108.686936 -3.054668 75.136070 0.000011 59.559250 -0.000026 -61.495451 1.668093 -13.435099 19.450060 20.477653 1.050245 36.430655 -42.891095 22.465814 -0.000000 -0.000002 0.000001 8.024070 -11.756125 46.776441 6.454485 -4.297066 112.723803 -0.000000 0.000001 0.000000 2.511184 -6.384161 61.840260 5.190639 -4.626590 96.584667 0.000007 0.000002 -0.000002 3.221593 -6.689497 71.121093 5.294240 -4.613518 97.870826 0.000004 -0.000002 0.000001 3.930872 -6.866726 80.380043 4.132451 -4.627585 83.523569 0.000002 0.000003 -0.000003 0.000000 -0.000000 0.000001 0.000000 0.000000 -0.000000 0.000000 0.000000 -0.000000 0.000000 0.000000 -0.000000 0.000000 0.000000 -0.000000 0.000000 0.000000 -0.000000 0.000000 0.000000 -0.000000 0.000000 0.000000 -0.000000 0.000000 0.000000 -0.000000 0.000000 0.000000 -0.000000 0.000000 0.000000 -0.000000 0.000000 -0.000000 0.000000 0.000000 -0.000000 0.000000 0.000000 -0.000000 0.000000 
